name analog
datacolumns 19
datarows 49
range 0.0 0.024
endheader
time	ground_force_vx	ground_force_vy	ground_force_vz	ground_force_px	ground_force_py	ground_force_pz	l_ground_force_vx	l_ground_force_vy	l_ground_force_vz	l_ground_force_px	l_ground_force_py	l_ground_force_pz	ground_torque_x	ground_torque_y	ground_torque_z	l_ground_torque_x	l_ground_torque_y	l_ground_torque_z
0.0	-0.0	-0.0	-0.0	1.9927961826324463	-0.8915606737136841	-762.3981323242188	-0.0	-0.0	-0.0	-34.739803314208984	16.224454879760742	76.62428283691406	-0.0	-0.0	-0.0	-0.0	-0.0	-0.0
0.0005	-0.0	-0.0	-0.0	1.843748927116394	-1.0399197340011597	-762.867919921875	-0.0	-0.0	-0.0	-34.73963928222656	15.864680290222168	76.97563934326172	-0.0	-0.0	-0.0	-0.0	-0.0	-0.0
0.001	-0.0	-0.0	-0.0	2.2004711627960205	-1.9906337261199951	-766.2828369140625	-0.0	-0.0	-0.0	-34.798912048339844	16.374691009521484	75.103759765625	-0.0	-0.0	-0.0	-0.0	-0.0	-0.0
0.0015	-0.0	-0.0	-0.0	1.5760111808776855	-1.5746268033981323	-766.4005126953125	-0.0	-0.0	-0.0	-34.70988464355469	16.34503746032715	75.80436706542969	-0.0	-0.0	-0.0	-0.0	-0.0	-0.0
0.002	-0.0	-0.0	-0.0	1.5761518478393557	-1.2775557041168213	-766.5180053710938	-0.0	-0.0	-0.0	-34.650726318359375	16.074092864990234	75.9231185913086	-0.0	-0.0	-0.0	-0.0	-0.0	-0.0
0.0025	-0.0	-0.0	-0.0	1.694308519363403	-1.42608642578125	-769.8150024414062	-0.0	-0.0	-0.0	-34.79887008666992	15.955248832702637	74.6370620727539	-0.0	-0.0	-0.0	-0.0	-0.0	-0.0
0.003	-0.0	-0.0	-0.0	1.3679897785186768	-1.158409595489502	-770.0503540039062	-0.0	-0.0	-0.0	-34.82936096191406	16.344287872314453	75.91881561279297	-0.0	-0.0	-0.0	-0.0	-0.0	-0.0
0.0035	-0.0	-0.0	-0.0	1.070526123046875	-0.9811334609985352	-769.2272338867188	-0.0	-0.0	-0.0	-34.76865768432617	16.224088668823242	75.46236419677734	-0.0	-0.0	-0.0	-0.0	-0.0	-0.0
0.004	-0.0	-0.0	-0.0	0.5039833188056946	-0.5949734449386597	-771.6981201171875	-0.0	-0.0	-0.0	-34.56256866455078	16.313982009887695	76.392578125	-0.0	-0.0	-0.0	-0.0	-0.0	-0.0
0.0045000000000000005	-0.0	-0.0	-0.0	0.3873468041419983	-0.8027490377426147	-772.9946899414062	-0.0	-0.0	-0.0	-34.85956954956055	16.254220962524414	75.33313751220703	-0.0	-0.0	-0.0	-0.0	-0.0	-0.0
0.005	-0.0	-0.0	-0.0	-0.207084834575653	-0.5653501749038696	-773.580078125	-0.0	-0.0	-0.0	-34.797454833984375	16.22389030456543	73.11626434326172	-0.0	-0.0	-0.0	-0.0	-0.0	-0.0
0.0055	-0.0	-0.0	-0.0	-0.652987003326416	-1.187183141708374	-773.2295532226562	-0.0	-0.0	-0.0	-34.56217193603516	15.985299110412598	77.20947265625	-0.0	-0.0	-0.0	-0.0	-0.0	-0.0
0.006	-0.0	-0.0	-0.0	-0.9504493474960328	-0.8330121636390686	-776.0484619140625	-0.0	-0.0	-0.0	-35.06657028198242	16.04496955871582	75.22675323486328	-0.0	-0.0	-0.0	-0.0	-0.0	-0.0
0.006500000000000001	-0.0	-0.0	-0.0	-1.4855616092681885	-0.7421138286590576	-777.2224731445312	-0.0	-0.0	-0.0	-34.590187072753906	16.19326400756836	74.88629913330078	-0.0	-0.0	-0.0	-0.0	-0.0	-0.0
0.007	-0.0	-0.0	-0.0	-2.1099648475646973	-0.8913040161132812	-776.9918212890625	-0.0	-0.0	-0.0	-34.71251678466797	16.1336727142334	76.39918518066406	-0.0	-0.0	-0.0	-0.0	-0.0	-0.0
0.0075	-0.0	-0.0	-0.0	-2.379697561264038	-1.515216827392578	-777.5874633789062	-0.0	-0.0	-0.0	-34.799346923828125	16.433975219726562	75.92451477050781	-0.0	-0.0	-0.0	-0.0	-0.0	-0.0
0.008	-0.0	-0.0	-0.0	-2.587104797363281	-1.515216827392578	-778.6423950195312	-0.0	-0.0	-0.0	-34.8281364440918	16.493398666381836	75.69876098632812	-0.0	-0.0	-0.0	-0.0	-0.0	-0.0
0.0085	-0.0	-0.0	-0.0	-3.0934853553771973	-1.5427931547164917	-779.701904296875	-0.0	-0.0	-0.0	-34.80251693725586	16.311838150024414	74.64618682861328	-0.0	-0.0	-0.0	-0.0	-0.0	-0.0
0.009000000000000001	-0.0	-0.0	-0.0	-3.389999389648437	-1.6331285238265991	-779.2345581054688	-0.0	-0.0	-0.0	-34.679500579833984	16.309940338134766	74.98455810546875	-0.0	-0.0	-0.0	-0.0	-0.0	-0.0
0.0095	-0.0	-0.0	-0.0	-4.844592094421387	-1.2795439958572388	-779.8212890625	-0.0	-0.0	-0.0	-34.7689208984375	16.135162353515625	76.96366119384766	-0.0	-0.0	-0.0	-0.0	-0.0	-0.0
0.01	-0.0	-0.0	-0.0	-4.963964939117432	-1.4276500940322876	-778.5221557617188	-0.0	-0.0	-0.0	-34.74032974243164	16.255767822265625	76.85118865966797	-0.0	-0.0	-0.0	-0.0	-0.0	-0.0
0.0105	-0.0	-0.0	-0.0	-5.559669494628906	-1.1301028728485107	-776.7559814453125	-0.0	-0.0	-0.0	-34.799346923828125	15.955279350280762	74.97640991210938	-0.0	-0.0	-0.0	-0.0	-0.0	-0.0
0.011	-0.0	-0.0	-0.0	-5.889684677124023	-1.2799218893051147	-774.2904663085938	-0.0	-0.0	-0.0	-34.799346923828125	15.988118171691896	76.41250610351562	-0.0	-0.0	-0.0	-0.0	-0.0	-0.0
0.0115	-0.0	-0.0	-0.0	-6.333946228027344	-1.1605284214019775	-771.8328857421875	-0.0	-0.0	-0.0	-35.15718078613281	16.194534301757812	75.34332275390625	-0.0	-0.0	-0.0	-0.0	-0.0	-0.0
0.012	-0.0	-0.0	-0.0	-7.227999210357666	-0.9138785004615784	-770.0525512695312	-0.0	-0.0	-0.0	-34.976009368896484	16.36994171142578	75.22368621826172	-0.0	-0.0	-0.0	-0.0	-0.0	-0.0
0.0125	-0.0	-0.0	-0.0	-7.161081790924072	-1.1849735975265503	-767.3395385742188	-0.0	-0.0	-0.0	-34.88880157470703	16.194534301757812	75.70414733886719	-0.0	-0.0	-0.0	-0.0	-0.0	-0.0
0.013000000000000001	-0.0	-0.0	-0.0	-7.546013355255127	-0.8651622533798218	-764.1608276367188	-0.0	-0.0	-0.0	-34.77115631103516	16.497716903686523	74.51243591308594	-0.0	-0.0	-0.0	-0.0	-0.0	-0.0
0.0135	-0.0	-0.0	-0.0	-7.674344062805176	-1.1631710529327393	-760.1727905273438	-0.0	-0.0	-0.0	-34.70734024047852	15.981191635131836	74.3918685913086	-0.0	-0.0	-0.0	-0.0	-0.0	-0.0
0.014	-0.0	-0.0	-0.0	-7.763667583465576	-1.3088130950927734	-759.5598754882812	-0.0	-0.0	-0.0	-34.68184280395508	16.04547691345215	75.91569519042969	-0.0	-0.0	-0.0	-0.0	-0.0	-0.0
0.0145	-0.0	-0.0	-0.0	-8.230527877807617	-1.2783570289611816	-758.8432006835938	-0.0	-0.0	-0.0	-35.24663543701172	16.129907608032227	76.1348648071289	-0.0	-0.0	-0.0	-0.0	-0.0	-0.0
0.015	-0.0	-0.0	-0.0	-8.765620231628418	-1.1331980228424072	-758.1663208007812	-0.0	-0.0	-0.0	-34.858036041259766	15.980801582336426	74.4129867553711	-0.0	-0.0	-0.0	-0.0	-0.0	-0.0
0.0155	-0.0	-0.0	-0.0	-9.395078659057615	-1.5378849506378174	-758.983642578125	-0.0	-0.0	-0.0	-34.88880157470703	16.135543823242188	75.91493225097656	-0.0	-0.0	-0.0	-0.0	-0.0	-0.0
0.016	-0.0	-0.0	-0.0	-9.696045875549316	-1.0668110847473145	-757.9241943359375	-0.0	-0.0	-0.0	-34.71601104736328	16.01459503173828	75.91463470458984	-0.0	-0.0	-0.0	-0.0	-0.0	-0.0
0.0165	-0.0	-0.0	-0.0	-10.136509895324709	-1.5124059915542605	-757.7035522460938	-0.0	-0.0	-0.0	-34.617305755615234	16.163497924804688	75.34588623046875	-0.0	-0.0	-0.0	-0.0	-0.0	-0.0
0.017	-0.0	-0.0	-0.0	-10.880755424499512	-1.9608688354492188	-759.0704956054688	-0.0	-0.0	-0.0	-35.03682327270508	16.31557846069336	74.99523162841797	-0.0	-0.0	-0.0	-0.0	-0.0	-0.0
0.0175	-0.0	-0.0	-0.0	-11.274313926696776	-1.8133304119110107	-757.5709228515625	-0.0	-0.0	-0.0	-34.83028030395508	16.07345199584961	75.58920288085938	-0.0	-0.0	-0.0	-0.0	-0.0	-0.0
0.018000000000000002	-0.0	-0.0	-0.0	-11.501962661743164	-1.9916102886199951	-758.5209350585938	-0.0	-0.0	-0.0	-34.83367919921875	16.229066848754883	76.35958099365234	-0.0	-0.0	-0.0	-0.0	-0.0	-0.0
0.0185	-0.0	-0.0	-0.0	-11.689786911010742	-2.4129347801208496	-758.1553955078125	-0.0	-0.0	-0.0	-34.950775146484375	15.98695182800293	75.2253189086914	-0.0	-0.0	-0.0	-0.0	-0.0	-0.0
0.019	-0.0	-0.0	-0.0	-12.211871147155762	-2.114952564239502	-758.8484497070312	-0.0	-0.0	-0.0	-34.565608978271484	15.869491577148438	74.7528076171875	-0.0	-0.0	-0.0	-0.0	-0.0	-0.0
0.0195	-0.0	-0.0	-0.0	-12.074273109436035	-2.5197787284851074	-757.910888671875	-0.0	-0.0	-0.0	-34.88880157470703	16.069664001464844	76.1566162109375	-0.0	-0.0	-0.0	-0.0	-0.0	-0.0
0.02	-0.0	-0.0	-0.0	-12.098271369934082	-2.9926443099975586	-760.1381225585938	-0.0	-0.0	-0.0	-34.98203659057617	16.049646377563477	76.38565063476562	-0.0	-0.0	-0.0	-0.0	-0.0	-0.0
0.0205	-0.0	-0.0	-0.0	-12.194488525390623	-2.646585464477539	-760.6271362304688	-0.0	-0.0	-0.0	-34.69043731689453	16.139768600463867	75.95823669433594	-0.0	-0.0	-0.0	-0.0	-0.0	-0.0
0.021	-0.0	-0.0	-0.0	-12.19088649749756	-2.75574803352356	-760.5478515625	-0.0	-0.0	-0.0	-34.67478942871094	16.40180778503418	74.98159790039062	-0.0	-0.0	-0.0	-0.0	-0.0	-0.0
0.021500000000000002	-0.0	-0.0	-0.0	-12.3073091506958	-2.701129913330078	-760.7792358398438	-0.0	-0.0	-0.0	-34.834564208984375	16.1986083984375	75.7897720336914	-0.0	-0.0	-0.0	-0.0	-0.0	-0.0
0.022	-0.0	-0.0	-0.0	-12.373093605041504	-2.387080430984497	-761.5787353515625	-0.0	-0.0	-0.0	-34.85343170166016	16.2301082611084	74.98133087158203	-0.0	-0.0	-0.0	-0.0	-0.0	-0.0
0.0225	-0.0	-0.0	-0.0	-12.279991149902344	-2.7861456871032715	-762.177978515625	-0.0	-0.0	-0.0	-34.68292236328125	16.054624557495117	75.9282455444336	-0.0	-0.0	-0.0	-0.0	-0.0	-0.0
0.023	-0.0	-0.0	-0.0	-12.365158081054688	-2.224238872528076	-764.6824340820312	-0.0	-0.0	-0.0	-34.97392654418945	16.050397872924805	76.35089874267578	-0.0	-0.0	-0.0	-0.0	-0.0	-0.0
0.0235	-0.0	-0.0	-0.0	-12.489471435546877	-2.508053779602051	-765.3736572265625	-0.0	-0.0	-0.0	-34.73674011230469	15.897618293762209	74.20861053466797	-0.0	-0.0	-0.0	-0.0	-0.0	-0.0
0.024	-0.0	-0.0	-0.0	-12.190686225891112	-2.7899210453033447	-766.2042846679688	-0.0	-0.0	-0.0	-34.97826385498047	16.262161254882812	76.75347137451172	-0.0	-0.0	-0.0	-0.0	-0.0	-0.0
